<mxfile host="app.diagrams.net" modified="2024-04-02T12:00:50.768Z" agent="Mozilla/5.0 (Windows NT 10.0; Win64; x64) AppleWebKit/537.36 (KHTML, like Gecko) Chrome/123.0.0.0 Safari/537.36" etag="y9Vq9lcM3uHDW2iej2_6" version="24.2.1" type="device">
  <diagram name="Страница — 1" id="9Gxt4qa25L_nfijdD9Sr">
    <mxGraphModel dx="2967" dy="1875" grid="1" gridSize="10" guides="1" tooltips="1" connect="1" arrows="1" fold="1" page="1" pageScale="1" pageWidth="827" pageHeight="1169" math="0" shadow="0">
      <root>
        <mxCell id="0" />
        <mxCell id="1" parent="0" />
        <mxCell id="CE3u3HlWz1OrzM8fiblU-1" value="Money" style="swimlane;fontStyle=1;align=center;verticalAlign=top;childLayout=stackLayout;horizontal=1;startSize=26;horizontalStack=0;resizeParent=1;resizeParentMax=0;resizeLast=0;collapsible=1;marginBottom=0;whiteSpace=wrap;html=1;" vertex="1" parent="1">
          <mxGeometry x="-680" y="-190" width="160" height="112" as="geometry" />
        </mxCell>
        <mxCell id="CE3u3HlWz1OrzM8fiblU-2" value="+ wholePart: int" style="text;strokeColor=none;fillColor=none;align=left;verticalAlign=top;spacingLeft=4;spacingRight=4;overflow=hidden;rotatable=0;points=[[0,0.5],[1,0.5]];portConstraint=eastwest;whiteSpace=wrap;html=1;" vertex="1" parent="CE3u3HlWz1OrzM8fiblU-1">
          <mxGeometry y="26" width="160" height="26" as="geometry" />
        </mxCell>
        <mxCell id="CE3u3HlWz1OrzM8fiblU-27" value="+ fractionalPart: int" style="text;strokeColor=none;fillColor=none;align=left;verticalAlign=top;spacingLeft=4;spacingRight=4;overflow=hidden;rotatable=0;points=[[0,0.5],[1,0.5]];portConstraint=eastwest;whiteSpace=wrap;html=1;" vertex="1" parent="CE3u3HlWz1OrzM8fiblU-1">
          <mxGeometry y="52" width="160" height="26" as="geometry" />
        </mxCell>
        <mxCell id="CE3u3HlWz1OrzM8fiblU-3" value="" style="line;strokeWidth=1;fillColor=none;align=left;verticalAlign=middle;spacingTop=-1;spacingLeft=3;spacingRight=3;rotatable=0;labelPosition=right;points=[];portConstraint=eastwest;strokeColor=inherit;" vertex="1" parent="CE3u3HlWz1OrzM8fiblU-1">
          <mxGeometry y="78" width="160" height="8" as="geometry" />
        </mxCell>
        <mxCell id="CE3u3HlWz1OrzM8fiblU-4" value="+ DisplayAmount(): string" style="text;strokeColor=none;fillColor=none;align=left;verticalAlign=top;spacingLeft=4;spacingRight=4;overflow=hidden;rotatable=0;points=[[0,0.5],[1,0.5]];portConstraint=eastwest;whiteSpace=wrap;html=1;" vertex="1" parent="CE3u3HlWz1OrzM8fiblU-1">
          <mxGeometry y="86" width="160" height="26" as="geometry" />
        </mxCell>
        <mxCell id="CE3u3HlWz1OrzM8fiblU-26" value="&lt;p style=&quot;margin:0px;margin-top:4px;text-align:center;&quot;&gt;&lt;i&gt;&amp;lt;&amp;lt;Interface&amp;gt;&amp;gt;&lt;/i&gt;&lt;br&gt;&lt;b&gt;IMoney&lt;/b&gt;&lt;/p&gt;&lt;hr size=&quot;1&quot; style=&quot;border-style:solid;&quot;&gt;&lt;p style=&quot;margin:0px;margin-left:4px;&quot;&gt;+ wholePart: int&lt;br&gt;+ fractionalPart: int&lt;/p&gt;&lt;hr size=&quot;1&quot; style=&quot;border-style:solid;&quot;&gt;&lt;p style=&quot;margin:0px;margin-left:4px;&quot;&gt;+ DisplayAmount(): string&lt;/p&gt;" style="verticalAlign=top;align=left;overflow=fill;html=1;whiteSpace=wrap;" vertex="1" parent="1">
          <mxGeometry x="-460" y="-176" width="190" height="104" as="geometry" />
        </mxCell>
        <mxCell id="CE3u3HlWz1OrzM8fiblU-28" value="" style="endArrow=block;dashed=1;endFill=0;endSize=12;html=1;rounded=0;entryX=0;entryY=0.5;entryDx=0;entryDy=0;exitX=1;exitY=0.5;exitDx=0;exitDy=0;" edge="1" parent="1" source="CE3u3HlWz1OrzM8fiblU-27" target="CE3u3HlWz1OrzM8fiblU-26">
          <mxGeometry width="160" relative="1" as="geometry">
            <mxPoint x="-440" y="110" as="sourcePoint" />
            <mxPoint x="-260" y="230" as="targetPoint" />
          </mxGeometry>
        </mxCell>
        <mxCell id="CE3u3HlWz1OrzM8fiblU-29" value="CurrencyMoney" style="swimlane;fontStyle=1;align=center;verticalAlign=top;childLayout=stackLayout;horizontal=1;startSize=26;horizontalStack=0;resizeParent=1;resizeParentMax=0;resizeLast=0;collapsible=1;marginBottom=0;whiteSpace=wrap;html=1;" vertex="1" parent="1">
          <mxGeometry x="-505" y="120" width="160" height="112" as="geometry" />
        </mxCell>
        <mxCell id="CE3u3HlWz1OrzM8fiblU-30" value="+ currencyName: string" style="text;strokeColor=none;fillColor=none;align=left;verticalAlign=top;spacingLeft=4;spacingRight=4;overflow=hidden;rotatable=0;points=[[0,0.5],[1,0.5]];portConstraint=eastwest;whiteSpace=wrap;html=1;" vertex="1" parent="CE3u3HlWz1OrzM8fiblU-29">
          <mxGeometry y="26" width="160" height="26" as="geometry" />
        </mxCell>
        <mxCell id="CE3u3HlWz1OrzM8fiblU-31" value="+ IMoney: amount" style="text;strokeColor=none;fillColor=none;align=left;verticalAlign=top;spacingLeft=4;spacingRight=4;overflow=hidden;rotatable=0;points=[[0,0.5],[1,0.5]];portConstraint=eastwest;whiteSpace=wrap;html=1;" vertex="1" parent="CE3u3HlWz1OrzM8fiblU-29">
          <mxGeometry y="52" width="160" height="26" as="geometry" />
        </mxCell>
        <mxCell id="CE3u3HlWz1OrzM8fiblU-32" value="" style="line;strokeWidth=1;fillColor=none;align=left;verticalAlign=middle;spacingTop=-1;spacingLeft=3;spacingRight=3;rotatable=0;labelPosition=right;points=[];portConstraint=eastwest;strokeColor=inherit;" vertex="1" parent="CE3u3HlWz1OrzM8fiblU-29">
          <mxGeometry y="78" width="160" height="8" as="geometry" />
        </mxCell>
        <mxCell id="CE3u3HlWz1OrzM8fiblU-33" value="+ DisplayAmount(): string" style="text;strokeColor=none;fillColor=none;align=left;verticalAlign=top;spacingLeft=4;spacingRight=4;overflow=hidden;rotatable=0;points=[[0,0.5],[1,0.5]];portConstraint=eastwest;whiteSpace=wrap;html=1;" vertex="1" parent="CE3u3HlWz1OrzM8fiblU-29">
          <mxGeometry y="86" width="160" height="26" as="geometry" />
        </mxCell>
        <mxCell id="CE3u3HlWz1OrzM8fiblU-34" value="&lt;p style=&quot;margin:0px;margin-top:4px;text-align:center;&quot;&gt;&lt;i&gt;&amp;lt;&amp;lt;Interface&amp;gt;&amp;gt;&lt;/i&gt;&lt;br&gt;&lt;b&gt;ICurrency&lt;/b&gt;&lt;/p&gt;&lt;hr size=&quot;1&quot; style=&quot;border-style:solid;&quot;&gt;&lt;p style=&quot;margin:0px;margin-left:4px;&quot;&gt;+ currencyName: string&lt;br&gt;+ IMoney: amount&lt;/p&gt;&lt;hr size=&quot;1&quot; style=&quot;border-style:solid;&quot;&gt;&lt;p style=&quot;margin:0px;margin-left:4px;&quot;&gt;+ DisplayAmount(): string&lt;/p&gt;" style="verticalAlign=top;align=left;overflow=fill;html=1;whiteSpace=wrap;" vertex="1" parent="1">
          <mxGeometry x="-520" y="-40" width="190" height="104" as="geometry" />
        </mxCell>
        <mxCell id="CE3u3HlWz1OrzM8fiblU-35" value="" style="endArrow=block;dashed=1;endFill=0;endSize=12;html=1;rounded=0;entryX=0.5;entryY=1;entryDx=0;entryDy=0;exitX=0.5;exitY=0;exitDx=0;exitDy=0;" edge="1" parent="1" source="CE3u3HlWz1OrzM8fiblU-29" target="CE3u3HlWz1OrzM8fiblU-34">
          <mxGeometry width="160" relative="1" as="geometry">
            <mxPoint x="-480" y="370" as="sourcePoint" />
            <mxPoint x="-320" y="370" as="targetPoint" />
          </mxGeometry>
        </mxCell>
        <mxCell id="CE3u3HlWz1OrzM8fiblU-49" value="EuroMoney" style="swimlane;fontStyle=1;align=center;verticalAlign=top;childLayout=stackLayout;horizontal=1;startSize=26;horizontalStack=0;resizeParent=1;resizeParentMax=0;resizeLast=0;collapsible=1;marginBottom=0;whiteSpace=wrap;html=1;" vertex="1" parent="1">
          <mxGeometry x="-170" y="90" width="160" height="112" as="geometry" />
        </mxCell>
        <mxCell id="CE3u3HlWz1OrzM8fiblU-50" value="+ currencyName: string" style="text;strokeColor=none;fillColor=none;align=left;verticalAlign=top;spacingLeft=4;spacingRight=4;overflow=hidden;rotatable=0;points=[[0,0.5],[1,0.5]];portConstraint=eastwest;whiteSpace=wrap;html=1;" vertex="1" parent="CE3u3HlWz1OrzM8fiblU-49">
          <mxGeometry y="26" width="160" height="26" as="geometry" />
        </mxCell>
        <mxCell id="CE3u3HlWz1OrzM8fiblU-51" value="+ IMoney: amount" style="text;strokeColor=none;fillColor=none;align=left;verticalAlign=top;spacingLeft=4;spacingRight=4;overflow=hidden;rotatable=0;points=[[0,0.5],[1,0.5]];portConstraint=eastwest;whiteSpace=wrap;html=1;" vertex="1" parent="CE3u3HlWz1OrzM8fiblU-49">
          <mxGeometry y="52" width="160" height="26" as="geometry" />
        </mxCell>
        <mxCell id="CE3u3HlWz1OrzM8fiblU-52" value="" style="line;strokeWidth=1;fillColor=none;align=left;verticalAlign=middle;spacingTop=-1;spacingLeft=3;spacingRight=3;rotatable=0;labelPosition=right;points=[];portConstraint=eastwest;strokeColor=inherit;" vertex="1" parent="CE3u3HlWz1OrzM8fiblU-49">
          <mxGeometry y="78" width="160" height="8" as="geometry" />
        </mxCell>
        <mxCell id="CE3u3HlWz1OrzM8fiblU-53" value="+ DisplayAmount(): string" style="text;strokeColor=none;fillColor=none;align=left;verticalAlign=top;spacingLeft=4;spacingRight=4;overflow=hidden;rotatable=0;points=[[0,0.5],[1,0.5]];portConstraint=eastwest;whiteSpace=wrap;html=1;" vertex="1" parent="CE3u3HlWz1OrzM8fiblU-49">
          <mxGeometry y="86" width="160" height="26" as="geometry" />
        </mxCell>
        <mxCell id="CE3u3HlWz1OrzM8fiblU-54" value="DollarMoney" style="swimlane;fontStyle=1;align=center;verticalAlign=top;childLayout=stackLayout;horizontal=1;startSize=26;horizontalStack=0;resizeParent=1;resizeParentMax=0;resizeLast=0;collapsible=1;marginBottom=0;whiteSpace=wrap;html=1;" vertex="1" parent="1">
          <mxGeometry x="-230" y="232" width="160" height="112" as="geometry" />
        </mxCell>
        <mxCell id="CE3u3HlWz1OrzM8fiblU-55" value="+ currencyName: string" style="text;strokeColor=none;fillColor=none;align=left;verticalAlign=top;spacingLeft=4;spacingRight=4;overflow=hidden;rotatable=0;points=[[0,0.5],[1,0.5]];portConstraint=eastwest;whiteSpace=wrap;html=1;" vertex="1" parent="CE3u3HlWz1OrzM8fiblU-54">
          <mxGeometry y="26" width="160" height="26" as="geometry" />
        </mxCell>
        <mxCell id="CE3u3HlWz1OrzM8fiblU-56" value="+ IMoney: amount" style="text;strokeColor=none;fillColor=none;align=left;verticalAlign=top;spacingLeft=4;spacingRight=4;overflow=hidden;rotatable=0;points=[[0,0.5],[1,0.5]];portConstraint=eastwest;whiteSpace=wrap;html=1;" vertex="1" parent="CE3u3HlWz1OrzM8fiblU-54">
          <mxGeometry y="52" width="160" height="26" as="geometry" />
        </mxCell>
        <mxCell id="CE3u3HlWz1OrzM8fiblU-57" value="" style="line;strokeWidth=1;fillColor=none;align=left;verticalAlign=middle;spacingTop=-1;spacingLeft=3;spacingRight=3;rotatable=0;labelPosition=right;points=[];portConstraint=eastwest;strokeColor=inherit;" vertex="1" parent="CE3u3HlWz1OrzM8fiblU-54">
          <mxGeometry y="78" width="160" height="8" as="geometry" />
        </mxCell>
        <mxCell id="CE3u3HlWz1OrzM8fiblU-58" value="+ DisplayAmount(): string" style="text;strokeColor=none;fillColor=none;align=left;verticalAlign=top;spacingLeft=4;spacingRight=4;overflow=hidden;rotatable=0;points=[[0,0.5],[1,0.5]];portConstraint=eastwest;whiteSpace=wrap;html=1;" vertex="1" parent="CE3u3HlWz1OrzM8fiblU-54">
          <mxGeometry y="86" width="160" height="26" as="geometry" />
        </mxCell>
        <mxCell id="CE3u3HlWz1OrzM8fiblU-59" value="GrivnaMoney" style="swimlane;fontStyle=1;align=center;verticalAlign=top;childLayout=stackLayout;horizontal=1;startSize=26;horizontalStack=0;resizeParent=1;resizeParentMax=0;resizeLast=0;collapsible=1;marginBottom=0;whiteSpace=wrap;html=1;" vertex="1" parent="1">
          <mxGeometry x="-240" y="-55" width="160" height="112" as="geometry" />
        </mxCell>
        <mxCell id="CE3u3HlWz1OrzM8fiblU-60" value="+ currencyName: string" style="text;strokeColor=none;fillColor=none;align=left;verticalAlign=top;spacingLeft=4;spacingRight=4;overflow=hidden;rotatable=0;points=[[0,0.5],[1,0.5]];portConstraint=eastwest;whiteSpace=wrap;html=1;" vertex="1" parent="CE3u3HlWz1OrzM8fiblU-59">
          <mxGeometry y="26" width="160" height="26" as="geometry" />
        </mxCell>
        <mxCell id="CE3u3HlWz1OrzM8fiblU-61" value="+ IMoney: amount" style="text;strokeColor=none;fillColor=none;align=left;verticalAlign=top;spacingLeft=4;spacingRight=4;overflow=hidden;rotatable=0;points=[[0,0.5],[1,0.5]];portConstraint=eastwest;whiteSpace=wrap;html=1;" vertex="1" parent="CE3u3HlWz1OrzM8fiblU-59">
          <mxGeometry y="52" width="160" height="26" as="geometry" />
        </mxCell>
        <mxCell id="CE3u3HlWz1OrzM8fiblU-62" value="" style="line;strokeWidth=1;fillColor=none;align=left;verticalAlign=middle;spacingTop=-1;spacingLeft=3;spacingRight=3;rotatable=0;labelPosition=right;points=[];portConstraint=eastwest;strokeColor=inherit;" vertex="1" parent="CE3u3HlWz1OrzM8fiblU-59">
          <mxGeometry y="78" width="160" height="8" as="geometry" />
        </mxCell>
        <mxCell id="CE3u3HlWz1OrzM8fiblU-63" value="+ DisplayAmount(): string" style="text;strokeColor=none;fillColor=none;align=left;verticalAlign=top;spacingLeft=4;spacingRight=4;overflow=hidden;rotatable=0;points=[[0,0.5],[1,0.5]];portConstraint=eastwest;whiteSpace=wrap;html=1;" vertex="1" parent="CE3u3HlWz1OrzM8fiblU-59">
          <mxGeometry y="86" width="160" height="26" as="geometry" />
        </mxCell>
        <mxCell id="CE3u3HlWz1OrzM8fiblU-67" value="&lt;p style=&quot;margin:0px;margin-top:4px;text-align:center;&quot;&gt;&lt;i&gt;&amp;lt;&amp;lt;Interface&amp;gt;&amp;gt;&lt;/i&gt;&lt;br&gt;&lt;b&gt;IProduct&lt;/b&gt;&lt;/p&gt;&lt;hr size=&quot;1&quot; style=&quot;border-style:solid;&quot;&gt;&lt;p style=&quot;margin:0px;margin-left:4px;&quot;&gt;+ name: string&lt;br&gt;+ category: string&amp;nbsp;&lt;/p&gt;&lt;p style=&quot;margin:0px;margin-left:4px;&quot;&gt;+ currency: CurrencyMoney&lt;/p&gt;" style="verticalAlign=top;align=left;overflow=fill;html=1;whiteSpace=wrap;" vertex="1" parent="1">
          <mxGeometry x="-750" y="-33" width="190" height="97" as="geometry" />
        </mxCell>
        <mxCell id="CE3u3HlWz1OrzM8fiblU-68" value="Product" style="swimlane;fontStyle=1;align=center;verticalAlign=top;childLayout=stackLayout;horizontal=1;startSize=26;horizontalStack=0;resizeParent=1;resizeParentMax=0;resizeLast=0;collapsible=1;marginBottom=0;whiteSpace=wrap;html=1;" vertex="1" parent="1">
          <mxGeometry x="-735" y="107.5" width="160" height="104" as="geometry" />
        </mxCell>
        <mxCell id="CE3u3HlWz1OrzM8fiblU-69" value="&lt;p style=&quot;margin: 0px 0px 0px 4px;&quot;&gt;+ name: string&lt;br&gt;&lt;br&gt;&lt;/p&gt;" style="text;strokeColor=none;fillColor=none;align=left;verticalAlign=top;spacingLeft=4;spacingRight=4;overflow=hidden;rotatable=0;points=[[0,0.5],[1,0.5]];portConstraint=eastwest;whiteSpace=wrap;html=1;" vertex="1" parent="CE3u3HlWz1OrzM8fiblU-68">
          <mxGeometry y="26" width="160" height="26" as="geometry" />
        </mxCell>
        <mxCell id="CE3u3HlWz1OrzM8fiblU-70" value="&lt;p style=&quot;margin: 0px 0px 0px 4px;&quot;&gt;+ category: string&amp;nbsp;&lt;/p&gt;&lt;p style=&quot;margin: 0px 0px 0px 4px;&quot;&gt;&lt;br&gt;&lt;/p&gt;" style="text;strokeColor=none;fillColor=none;align=left;verticalAlign=top;spacingLeft=4;spacingRight=4;overflow=hidden;rotatable=0;points=[[0,0.5],[1,0.5]];portConstraint=eastwest;whiteSpace=wrap;html=1;" vertex="1" parent="CE3u3HlWz1OrzM8fiblU-68">
          <mxGeometry y="52" width="160" height="26" as="geometry" />
        </mxCell>
        <mxCell id="CE3u3HlWz1OrzM8fiblU-74" value="+ currency: CurrencyMoney" style="text;strokeColor=none;fillColor=none;align=left;verticalAlign=top;spacingLeft=4;spacingRight=4;overflow=hidden;rotatable=0;points=[[0,0.5],[1,0.5]];portConstraint=eastwest;whiteSpace=wrap;html=1;" vertex="1" parent="CE3u3HlWz1OrzM8fiblU-68">
          <mxGeometry y="78" width="160" height="26" as="geometry" />
        </mxCell>
        <mxCell id="CE3u3HlWz1OrzM8fiblU-73" value="" style="endArrow=block;dashed=1;endFill=0;endSize=12;html=1;rounded=0;entryX=0.5;entryY=0;entryDx=0;entryDy=0;" edge="1" parent="1" source="CE3u3HlWz1OrzM8fiblU-67" target="CE3u3HlWz1OrzM8fiblU-68">
          <mxGeometry width="160" relative="1" as="geometry">
            <mxPoint x="-340" y="480" as="sourcePoint" />
            <mxPoint x="-180" y="480" as="targetPoint" />
          </mxGeometry>
        </mxCell>
        <mxCell id="CE3u3HlWz1OrzM8fiblU-75" value="Extends" style="endArrow=block;endSize=16;endFill=0;html=1;rounded=0;exitX=1;exitY=0.5;exitDx=0;exitDy=0;entryX=0;entryY=0.5;entryDx=0;entryDy=0;" edge="1" parent="1" source="CE3u3HlWz1OrzM8fiblU-30" target="CE3u3HlWz1OrzM8fiblU-51">
          <mxGeometry width="160" relative="1" as="geometry">
            <mxPoint x="-320" y="200" as="sourcePoint" />
            <mxPoint x="-160" y="200" as="targetPoint" />
          </mxGeometry>
        </mxCell>
        <mxCell id="CE3u3HlWz1OrzM8fiblU-76" value="Extends" style="endArrow=block;endSize=16;endFill=0;html=1;rounded=0;exitX=1;exitY=0.5;exitDx=0;exitDy=0;entryX=0;entryY=0.5;entryDx=0;entryDy=0;" edge="1" parent="1" source="CE3u3HlWz1OrzM8fiblU-30" target="CE3u3HlWz1OrzM8fiblU-61">
          <mxGeometry width="160" relative="1" as="geometry">
            <mxPoint x="-330" y="130" as="sourcePoint" />
            <mxPoint x="-170" y="130" as="targetPoint" />
          </mxGeometry>
        </mxCell>
        <mxCell id="CE3u3HlWz1OrzM8fiblU-77" value="Extends" style="endArrow=block;endSize=16;endFill=0;html=1;rounded=0;exitX=1;exitY=0.5;exitDx=0;exitDy=0;entryX=0;entryY=0.5;entryDx=0;entryDy=0;" edge="1" parent="1" source="CE3u3HlWz1OrzM8fiblU-30" target="CE3u3HlWz1OrzM8fiblU-56">
          <mxGeometry width="160" relative="1" as="geometry">
            <mxPoint x="-340" y="250" as="sourcePoint" />
            <mxPoint x="-180" y="250" as="targetPoint" />
          </mxGeometry>
        </mxCell>
        <mxCell id="CE3u3HlWz1OrzM8fiblU-78" value="&lt;p style=&quot;margin:0px;margin-top:4px;text-align:center;&quot;&gt;&lt;i&gt;&amp;lt;&amp;lt;Interface&amp;gt;&amp;gt;&lt;/i&gt;&lt;br&gt;&lt;b&gt;IProductManager&lt;/b&gt;&lt;/p&gt;&lt;hr size=&quot;1&quot; style=&quot;border-style:solid;&quot;&gt;&lt;p style=&quot;margin:0px;margin-left:4px;&quot;&gt;+ ReduceProductPrice (CurrencyMoney): void&lt;br&gt;&lt;/p&gt;" style="verticalAlign=top;align=left;overflow=fill;html=1;whiteSpace=wrap;" vertex="1" parent="1">
          <mxGeometry x="-910" y="-178" width="190" height="88" as="geometry" />
        </mxCell>
        <mxCell id="CE3u3HlWz1OrzM8fiblU-79" value="&lt;p style=&quot;margin:0px;margin-top:4px;text-align:center;&quot;&gt;&lt;b&gt;ProductManager&lt;/b&gt;&lt;/p&gt;&lt;hr size=&quot;1&quot; style=&quot;border-style:solid;&quot;&gt;&lt;p style=&quot;margin:0px;margin-left:4px;&quot;&gt;&lt;/p&gt;&lt;p style=&quot;margin:0px;margin-left:4px;&quot;&gt;+ ReduceProductPrice (CurrencyMoney): void&lt;br&gt;&lt;/p&gt;" style="verticalAlign=top;align=left;overflow=fill;html=1;whiteSpace=wrap;" vertex="1" parent="1">
          <mxGeometry x="-1130" y="-130" width="160" height="68" as="geometry" />
        </mxCell>
        <mxCell id="CE3u3HlWz1OrzM8fiblU-80" value="" style="endArrow=block;dashed=1;endFill=0;endSize=12;html=1;rounded=0;exitX=0;exitY=0.75;exitDx=0;exitDy=0;entryX=1;entryY=0.25;entryDx=0;entryDy=0;" edge="1" parent="1" source="CE3u3HlWz1OrzM8fiblU-78" target="CE3u3HlWz1OrzM8fiblU-79">
          <mxGeometry width="160" relative="1" as="geometry">
            <mxPoint x="-740" y="19" as="sourcePoint" />
            <mxPoint x="-817" y="19" as="targetPoint" />
          </mxGeometry>
        </mxCell>
        <mxCell id="CE3u3HlWz1OrzM8fiblU-81" value="Extends" style="endArrow=block;endSize=16;endFill=0;html=1;rounded=0;exitX=0;exitY=0.5;exitDx=0;exitDy=0;entryX=1;entryY=0.5;entryDx=0;entryDy=0;" edge="1" parent="1" source="CE3u3HlWz1OrzM8fiblU-67" target="CE3u3HlWz1OrzM8fiblU-82">
          <mxGeometry width="160" relative="1" as="geometry">
            <mxPoint x="-800" y="130" as="sourcePoint" />
            <mxPoint x="-655" y="140" as="targetPoint" />
          </mxGeometry>
        </mxCell>
        <mxCell id="CE3u3HlWz1OrzM8fiblU-82" value="&lt;p style=&quot;margin:0px;margin-top:4px;text-align:center;&quot;&gt;&lt;i&gt;&amp;lt;&amp;lt;Interface&amp;gt;&amp;gt;&lt;/i&gt;&lt;br&gt;&lt;b&gt;IWareHouseProduct&lt;/b&gt;&lt;/p&gt;&lt;hr size=&quot;1&quot; style=&quot;border-style:solid;&quot;&gt;&lt;p style=&quot;margin:0px;margin-left:4px;&quot;&gt;+ quantity: int&lt;br&gt;+ lastStockedDate: DataTime&lt;/p&gt;" style="verticalAlign=top;align=left;overflow=fill;html=1;whiteSpace=wrap;" vertex="1" parent="1">
          <mxGeometry x="-1030" y="-25.5" width="190" height="82.5" as="geometry" />
        </mxCell>
        <mxCell id="CE3u3HlWz1OrzM8fiblU-83" value="" style="endArrow=block;dashed=1;endFill=0;endSize=12;html=1;rounded=0;exitX=0;exitY=0.5;exitDx=0;exitDy=0;entryX=0.998;entryY=0.093;entryDx=0;entryDy=0;entryPerimeter=0;" edge="1" parent="1" source="CE3u3HlWz1OrzM8fiblU-82" target="CE3u3HlWz1OrzM8fiblU-88">
          <mxGeometry width="160" relative="1" as="geometry">
            <mxPoint x="-680" y="240" as="sourcePoint" />
            <mxPoint x="-820" y="195" as="targetPoint" />
          </mxGeometry>
        </mxCell>
        <mxCell id="CE3u3HlWz1OrzM8fiblU-84" value="WarehouseProduct" style="swimlane;fontStyle=1;align=center;verticalAlign=top;childLayout=stackLayout;horizontal=1;startSize=26;horizontalStack=0;resizeParent=1;resizeParentMax=0;resizeLast=0;collapsible=1;marginBottom=0;whiteSpace=wrap;html=1;" vertex="1" parent="1">
          <mxGeometry x="-1250" y="-20" width="170" height="110" as="geometry" />
        </mxCell>
        <mxCell id="CE3u3HlWz1OrzM8fiblU-88" value="&lt;p style=&quot;margin: 0px 0px 0px 4px;&quot;&gt;+ name: string&lt;br&gt;+ category: string&amp;nbsp;&lt;/p&gt;&lt;p style=&quot;margin: 0px 0px 0px 4px;&quot;&gt;+ currency: CurrencyMoney&lt;/p&gt;&lt;p style=&quot;margin: 0px 0px 0px 4px;&quot;&gt;+ quantity: int&lt;br&gt;+ lastStockedDate: DataTime&lt;br&gt;&lt;/p&gt;" style="text;strokeColor=none;fillColor=none;align=left;verticalAlign=top;spacingLeft=4;spacingRight=4;overflow=hidden;rotatable=0;points=[[0,0.5],[1,0.5]];portConstraint=eastwest;whiteSpace=wrap;html=1;" vertex="1" parent="CE3u3HlWz1OrzM8fiblU-84">
          <mxGeometry y="26" width="170" height="84" as="geometry" />
        </mxCell>
        <mxCell id="CE3u3HlWz1OrzM8fiblU-94" value="Warehouse" style="swimlane;fontStyle=1;align=center;verticalAlign=top;childLayout=stackLayout;horizontal=1;startSize=26;horizontalStack=0;resizeParent=1;resizeParentMax=0;resizeLast=0;collapsible=1;marginBottom=0;whiteSpace=wrap;html=1;" vertex="1" parent="1">
          <mxGeometry x="-1040" y="104" width="210" height="84" as="geometry" />
        </mxCell>
        <mxCell id="CE3u3HlWz1OrzM8fiblU-95" value="+ products: List&amp;lt;WarehouseProduct&amp;gt;" style="text;strokeColor=none;fillColor=none;align=left;verticalAlign=top;spacingLeft=4;spacingRight=4;overflow=hidden;rotatable=0;points=[[0,0.5],[1,0.5]];portConstraint=eastwest;whiteSpace=wrap;html=1;" vertex="1" parent="CE3u3HlWz1OrzM8fiblU-94">
          <mxGeometry y="26" width="210" height="24" as="geometry" />
        </mxCell>
        <mxCell id="CE3u3HlWz1OrzM8fiblU-97" value="" style="line;strokeWidth=1;fillColor=none;align=left;verticalAlign=middle;spacingTop=-1;spacingLeft=3;spacingRight=3;rotatable=0;labelPosition=right;points=[];portConstraint=eastwest;strokeColor=inherit;" vertex="1" parent="CE3u3HlWz1OrzM8fiblU-94">
          <mxGeometry y="50" width="210" height="8" as="geometry" />
        </mxCell>
        <mxCell id="CE3u3HlWz1OrzM8fiblU-98" value="+ DisplayAllProducts(): void" style="text;strokeColor=none;fillColor=none;align=left;verticalAlign=top;spacingLeft=4;spacingRight=4;overflow=hidden;rotatable=0;points=[[0,0.5],[1,0.5]];portConstraint=eastwest;whiteSpace=wrap;html=1;" vertex="1" parent="CE3u3HlWz1OrzM8fiblU-94">
          <mxGeometry y="58" width="210" height="26" as="geometry" />
        </mxCell>
        <mxCell id="CE3u3HlWz1OrzM8fiblU-99" value="&lt;p style=&quot;margin:0px;margin-top:4px;text-align:center;&quot;&gt;&lt;i&gt;&amp;lt;&amp;lt;Interface&amp;gt;&amp;gt;&lt;/i&gt;&lt;br&gt;&lt;b&gt;IReporter&lt;/b&gt;&lt;/p&gt;&lt;hr size=&quot;1&quot; style=&quot;border-style:solid;&quot;&gt;&lt;p style=&quot;margin:0px;margin-left:4px;&quot;&gt;+ Report(): void&lt;/p&gt;" style="verticalAlign=top;align=left;overflow=fill;html=1;whiteSpace=wrap;" vertex="1" parent="1">
          <mxGeometry x="-955" y="270" width="190" height="68" as="geometry" />
        </mxCell>
        <mxCell id="CE3u3HlWz1OrzM8fiblU-101" value="ReportService" style="swimlane;fontStyle=1;align=center;verticalAlign=top;childLayout=stackLayout;horizontal=1;startSize=26;horizontalStack=0;resizeParent=1;resizeParentMax=0;resizeLast=0;collapsible=1;marginBottom=0;whiteSpace=wrap;html=1;" vertex="1" parent="1">
          <mxGeometry x="-1220" y="238" width="180" height="100" as="geometry" />
        </mxCell>
        <mxCell id="CE3u3HlWz1OrzM8fiblU-102" value="&lt;p style=&quot;margin: 0px 0px 0px 4px;&quot;&gt;- _warehouse: Warehouse&lt;br&gt;&lt;br&gt;&lt;/p&gt;" style="text;strokeColor=none;fillColor=none;align=left;verticalAlign=top;spacingLeft=4;spacingRight=4;overflow=hidden;rotatable=0;points=[[0,0.5],[1,0.5]];portConstraint=eastwest;whiteSpace=wrap;html=1;" vertex="1" parent="CE3u3HlWz1OrzM8fiblU-101">
          <mxGeometry y="26" width="180" height="26" as="geometry" />
        </mxCell>
        <mxCell id="CE3u3HlWz1OrzM8fiblU-105" value="" style="line;strokeWidth=1;fillColor=none;align=left;verticalAlign=middle;spacingTop=-1;spacingLeft=3;spacingRight=3;rotatable=0;labelPosition=right;points=[];portConstraint=eastwest;strokeColor=inherit;" vertex="1" parent="CE3u3HlWz1OrzM8fiblU-101">
          <mxGeometry y="52" width="180" height="8" as="geometry" />
        </mxCell>
        <mxCell id="CE3u3HlWz1OrzM8fiblU-104" value="+ RegisterReport(IReporter): void" style="text;strokeColor=none;fillColor=none;align=left;verticalAlign=top;spacingLeft=4;spacingRight=4;overflow=hidden;rotatable=0;points=[[0,0.5],[1,0.5]];portConstraint=eastwest;whiteSpace=wrap;html=1;" vertex="1" parent="CE3u3HlWz1OrzM8fiblU-101">
          <mxGeometry y="60" width="180" height="40" as="geometry" />
        </mxCell>
        <mxCell id="CE3u3HlWz1OrzM8fiblU-106" value="OutgoingProductReporter" style="swimlane;fontStyle=1;align=center;verticalAlign=top;childLayout=stackLayout;horizontal=1;startSize=26;horizontalStack=0;resizeParent=1;resizeParentMax=0;resizeLast=0;collapsible=1;marginBottom=0;whiteSpace=wrap;html=1;" vertex="1" parent="1">
          <mxGeometry x="-830" y="400" width="220" height="130" as="geometry" />
        </mxCell>
        <mxCell id="CE3u3HlWz1OrzM8fiblU-107" value="&lt;p style=&quot;margin: 0px 0px 0px 4px;&quot;&gt;- _warehouse: Warehouse&lt;br&gt;&lt;br&gt;&lt;/p&gt;" style="text;strokeColor=none;fillColor=none;align=left;verticalAlign=top;spacingLeft=4;spacingRight=4;overflow=hidden;rotatable=0;points=[[0,0.5],[1,0.5]];portConstraint=eastwest;whiteSpace=wrap;html=1;" vertex="1" parent="CE3u3HlWz1OrzM8fiblU-106">
          <mxGeometry y="26" width="220" height="26" as="geometry" />
        </mxCell>
        <mxCell id="CE3u3HlWz1OrzM8fiblU-110" value="&lt;p style=&quot;margin: 0px 0px 0px 4px;&quot;&gt;- _outgoingProduct: List&amp;lt;WarehouseProduct&amp;gt;&lt;br&gt;&lt;br&gt;&lt;/p&gt;" style="text;strokeColor=none;fillColor=none;align=left;verticalAlign=top;spacingLeft=4;spacingRight=4;overflow=hidden;rotatable=0;points=[[0,0.5],[1,0.5]];portConstraint=eastwest;whiteSpace=wrap;html=1;" vertex="1" parent="CE3u3HlWz1OrzM8fiblU-106">
          <mxGeometry y="52" width="220" height="38" as="geometry" />
        </mxCell>
        <mxCell id="CE3u3HlWz1OrzM8fiblU-108" value="" style="line;strokeWidth=1;fillColor=none;align=left;verticalAlign=middle;spacingTop=-1;spacingLeft=3;spacingRight=3;rotatable=0;labelPosition=right;points=[];portConstraint=eastwest;strokeColor=inherit;" vertex="1" parent="CE3u3HlWz1OrzM8fiblU-106">
          <mxGeometry y="90" width="220" height="8" as="geometry" />
        </mxCell>
        <mxCell id="CE3u3HlWz1OrzM8fiblU-109" value="+ Report(): void" style="text;strokeColor=none;fillColor=none;align=left;verticalAlign=top;spacingLeft=4;spacingRight=4;overflow=hidden;rotatable=0;points=[[0,0.5],[1,0.5]];portConstraint=eastwest;whiteSpace=wrap;html=1;" vertex="1" parent="CE3u3HlWz1OrzM8fiblU-106">
          <mxGeometry y="98" width="220" height="32" as="geometry" />
        </mxCell>
        <mxCell id="CE3u3HlWz1OrzM8fiblU-111" value="IncomingProductReporter" style="swimlane;fontStyle=1;align=center;verticalAlign=top;childLayout=stackLayout;horizontal=1;startSize=26;horizontalStack=0;resizeParent=1;resizeParentMax=0;resizeLast=0;collapsible=1;marginBottom=0;whiteSpace=wrap;html=1;" vertex="1" parent="1">
          <mxGeometry x="-1080" y="400" width="220" height="130" as="geometry" />
        </mxCell>
        <mxCell id="CE3u3HlWz1OrzM8fiblU-112" value="&lt;p style=&quot;margin: 0px 0px 0px 4px;&quot;&gt;- _warehouse: Warehouse&lt;br&gt;&lt;br&gt;&lt;/p&gt;" style="text;strokeColor=none;fillColor=none;align=left;verticalAlign=top;spacingLeft=4;spacingRight=4;overflow=hidden;rotatable=0;points=[[0,0.5],[1,0.5]];portConstraint=eastwest;whiteSpace=wrap;html=1;" vertex="1" parent="CE3u3HlWz1OrzM8fiblU-111">
          <mxGeometry y="26" width="220" height="26" as="geometry" />
        </mxCell>
        <mxCell id="CE3u3HlWz1OrzM8fiblU-113" value="&lt;p style=&quot;margin: 0px 0px 0px 4px;&quot;&gt;- _incomingProduct: List&amp;lt;WarehouseProduct&amp;gt;&lt;br&gt;&lt;br&gt;&lt;/p&gt;" style="text;strokeColor=none;fillColor=none;align=left;verticalAlign=top;spacingLeft=4;spacingRight=4;overflow=hidden;rotatable=0;points=[[0,0.5],[1,0.5]];portConstraint=eastwest;whiteSpace=wrap;html=1;" vertex="1" parent="CE3u3HlWz1OrzM8fiblU-111">
          <mxGeometry y="52" width="220" height="38" as="geometry" />
        </mxCell>
        <mxCell id="CE3u3HlWz1OrzM8fiblU-114" value="" style="line;strokeWidth=1;fillColor=none;align=left;verticalAlign=middle;spacingTop=-1;spacingLeft=3;spacingRight=3;rotatable=0;labelPosition=right;points=[];portConstraint=eastwest;strokeColor=inherit;" vertex="1" parent="CE3u3HlWz1OrzM8fiblU-111">
          <mxGeometry y="90" width="220" height="8" as="geometry" />
        </mxCell>
        <mxCell id="CE3u3HlWz1OrzM8fiblU-115" value="+ Report(): void" style="text;strokeColor=none;fillColor=none;align=left;verticalAlign=top;spacingLeft=4;spacingRight=4;overflow=hidden;rotatable=0;points=[[0,0.5],[1,0.5]];portConstraint=eastwest;whiteSpace=wrap;html=1;" vertex="1" parent="CE3u3HlWz1OrzM8fiblU-111">
          <mxGeometry y="98" width="220" height="32" as="geometry" />
        </mxCell>
        <mxCell id="CE3u3HlWz1OrzM8fiblU-116" value="InventoryReporter" style="swimlane;fontStyle=1;align=center;verticalAlign=top;childLayout=stackLayout;horizontal=1;startSize=26;horizontalStack=0;resizeParent=1;resizeParentMax=0;resizeLast=0;collapsible=1;marginBottom=0;whiteSpace=wrap;html=1;" vertex="1" parent="1">
          <mxGeometry x="-700" y="260" width="220" height="92" as="geometry" />
        </mxCell>
        <mxCell id="CE3u3HlWz1OrzM8fiblU-117" value="&lt;p style=&quot;margin: 0px 0px 0px 4px;&quot;&gt;- _warehouse: Warehouse&lt;br&gt;&lt;br&gt;&lt;/p&gt;" style="text;strokeColor=none;fillColor=none;align=left;verticalAlign=top;spacingLeft=4;spacingRight=4;overflow=hidden;rotatable=0;points=[[0,0.5],[1,0.5]];portConstraint=eastwest;whiteSpace=wrap;html=1;" vertex="1" parent="CE3u3HlWz1OrzM8fiblU-116">
          <mxGeometry y="26" width="220" height="26" as="geometry" />
        </mxCell>
        <mxCell id="CE3u3HlWz1OrzM8fiblU-119" value="" style="line;strokeWidth=1;fillColor=none;align=left;verticalAlign=middle;spacingTop=-1;spacingLeft=3;spacingRight=3;rotatable=0;labelPosition=right;points=[];portConstraint=eastwest;strokeColor=inherit;" vertex="1" parent="CE3u3HlWz1OrzM8fiblU-116">
          <mxGeometry y="52" width="220" height="8" as="geometry" />
        </mxCell>
        <mxCell id="CE3u3HlWz1OrzM8fiblU-120" value="+ Report(): void" style="text;strokeColor=none;fillColor=none;align=left;verticalAlign=top;spacingLeft=4;spacingRight=4;overflow=hidden;rotatable=0;points=[[0,0.5],[1,0.5]];portConstraint=eastwest;whiteSpace=wrap;html=1;" vertex="1" parent="CE3u3HlWz1OrzM8fiblU-116">
          <mxGeometry y="60" width="220" height="32" as="geometry" />
        </mxCell>
        <mxCell id="CE3u3HlWz1OrzM8fiblU-121" value="" style="endArrow=block;dashed=1;endFill=0;endSize=12;html=1;rounded=0;exitX=0.5;exitY=1;exitDx=0;exitDy=0;entryX=0.5;entryY=0;entryDx=0;entryDy=0;" edge="1" parent="1" source="CE3u3HlWz1OrzM8fiblU-99" target="CE3u3HlWz1OrzM8fiblU-111">
          <mxGeometry width="160" relative="1" as="geometry">
            <mxPoint x="-910" y="360" as="sourcePoint" />
            <mxPoint x="-1060" y="370" as="targetPoint" />
            <Array as="points">
              <mxPoint x="-860" y="370" />
              <mxPoint x="-970" y="370" />
            </Array>
          </mxGeometry>
        </mxCell>
        <mxCell id="CE3u3HlWz1OrzM8fiblU-122" value="" style="endArrow=block;dashed=1;endFill=0;endSize=12;html=1;rounded=0;exitX=0.5;exitY=1;exitDx=0;exitDy=0;entryX=0.5;entryY=0;entryDx=0;entryDy=0;" edge="1" parent="1" source="CE3u3HlWz1OrzM8fiblU-99" target="CE3u3HlWz1OrzM8fiblU-106">
          <mxGeometry width="160" relative="1" as="geometry">
            <mxPoint x="-850" y="348" as="sourcePoint" />
            <mxPoint x="-960" y="410" as="targetPoint" />
            <Array as="points">
              <mxPoint x="-860" y="370" />
              <mxPoint x="-720" y="370" />
            </Array>
          </mxGeometry>
        </mxCell>
        <mxCell id="CE3u3HlWz1OrzM8fiblU-123" value="" style="endArrow=block;dashed=1;endFill=0;endSize=12;html=1;rounded=0;exitX=0.5;exitY=1;exitDx=0;exitDy=0;entryX=0;entryY=0.5;entryDx=0;entryDy=0;" edge="1" parent="1" target="CE3u3HlWz1OrzM8fiblU-117">
          <mxGeometry width="160" relative="1" as="geometry">
            <mxPoint x="-860" y="338" as="sourcePoint" />
            <mxPoint x="-720" y="400" as="targetPoint" />
            <Array as="points">
              <mxPoint x="-860" y="370" />
              <mxPoint x="-720" y="370" />
              <mxPoint x="-720" y="300" />
            </Array>
          </mxGeometry>
        </mxCell>
      </root>
    </mxGraphModel>
  </diagram>
</mxfile>
